<svg id="圖層_1" data-name="圖層 1" xmlns="http://www.w3.org/2000/svg" xmlns:xlink="http://www.w3.org/1999/xlink" viewBox="0 0 213 72"><defs><style>.cls-1{fill:url(#未命名漸層_9);}.cls-2{fill:#2f80ed;}.cls-3{opacity:0.3;}</style><linearGradient id="未命名漸層_9" x1="13.26" y1="-0.37" x2="49.41" y2="62.25" gradientUnits="userSpaceOnUse"><stop offset="0" stop-color="#56ccf2"/><stop offset="1" stop-color="#2f80ed"/></linearGradient></defs><title>工作區域 1</title><path class="cls-1" d="M62.4,31c0,4.68,0,9.36,0,14A17.14,17.14,0,0,1,50.62,61.13a25,25,0,0,1-7.91.95q-12.24,0-24.47,0c-7,0-12.45-3-16-9.16A17.44,17.44,0,0,1,.2,44.54c-.07-3.24,0-6.48,0-9.72C.18,29,.12,23.18.2,17.37A17.11,17.11,0,0,1,6.37,4,16.87,16.87,0,0,1,17.55-.15c9.27,0,18.55,0,27.83,0A17.23,17.23,0,0,1,61.55,11.59a15.09,15.09,0,0,1,.87,5.28C62.36,21.59,62.4,26.3,62.4,31ZM57,56.2C56,54.14,55,52.42,54.17,50.63a27.73,27.73,0,0,1-2.81-11.74c.06-5.56,0-11.11,0-16.67a11,11,0,0,0-11.22-11.3H22.53a11,11,0,0,0-8.82,4.15,9.14,9.14,0,0,0-2.4,5.34c-.19,6.51,0,13,0,19.53a11.19,11.19,0,0,0,11,11c6.16-.07,12.31,0,18.47,0a27.14,27.14,0,0,1,11.64,2.67C53.92,54.31,55.3,55.22,57,56.2Z"/><path class="cls-2" d="M48,71.86c-2.43,0-4.87,0-7.3,0-.8,0-1-.19-.91-1,.46-4.67,4-6.84,7.86-6.92,4.71-.1,9.42,0,14.13,0,.8,0,1.06.19,1,1-.46,4.12-3.09,6.55-7.2,6.9-2.5.22-5,0-7.55,0Z"/><g id="d7ccpu" class="cls-3"><path d="M78.42,28.34c.26-1.24.43-2.49.78-3.7,1.46-5.1,5-7.93,10.1-8.77a18.34,18.34,0,0,1,7.73.34A11.28,11.28,0,0,1,105.34,24a19.67,19.67,0,0,1,0,12.55A11.07,11.07,0,0,1,97.55,44a17.82,17.82,0,0,1-10.93-.18c-4.49-1.54-6.87-4.9-7.79-9.43-.15-.72-.27-1.45-.41-2.18Zm7.47,1.84.13.05c.08.84.14,1.68.26,2.51a8.81,8.81,0,0,0,.44,1.6c.92,2.45,2.85,3.67,5.73,3.64s4.78-1.23,5.6-3.69A12.5,12.5,0,0,0,98,26c-.87-2.41-2.75-3.56-5.57-3.57s-4.75,1.13-5.59,3.53A33.48,33.48,0,0,0,85.89,30.18Z"/><path d="M154.54,44.29h-7.42v-1c0-3.58,0-7.16,0-10.73a10.75,10.75,0,0,0-.18-2,2.25,2.25,0,0,0-2.91-2,3.93,3.93,0,0,0-3.22,3.76v12h-7.36V22c2.32,0,4.59,0,6.86,0,.17,0,.45.4.47.63.07.67,0,1.34,0,2.29,2-2.08,4.14-3.46,6.9-3.35s5,1,6.12,3.7c.91-.74,1.73-1.46,2.62-2.11a8.44,8.44,0,0,1,6.59-1.4c2.85.49,4.58,2.53,4.95,5.84a33.25,33.25,0,0,1,.18,3.6c0,4,0,8,0,12v1.11h-7.41v-1c0-3.54,0-7.08,0-10.63a12.52,12.52,0,0,0-.14-2c-.28-1.76-1.43-2.6-3.05-2a11.26,11.26,0,0,0-2.83,2c-.2.16-.18.66-.18,1,0,3.87,0,7.74,0,11.61Z"/><path d="M129.15,44.3h-7.21V41.79c-.33.27-.53.41-.71.57a9.11,9.11,0,0,1-8.8,2.08c-2.55-.6-4-2.23-4.29-5a12.63,12.63,0,0,1,0-3,5.63,5.63,0,0,1,3.8-4.77,16.54,16.54,0,0,1,6-.86c1.29,0,2.58,0,3.85,0,.21-2.26-.6-3.46-2.64-3.43-2.29,0-4.58.43-6.86.68-.32,0-.63.1-1,.17l-1.06-4.94c.89-.24,1.75-.49,2.62-.69,3.4-.8,6.82-1.41,10.31-.7a6.59,6.59,0,0,1,5.76,6.2,21.93,21.93,0,0,1,.2,2.92c0,4.12,0,8.25,0,12.38Zm-7.23-9.53c-1.73,0-3.31,0-4.89,0-1.34,0-2,.57-2.14,1.55a2.51,2.51,0,0,0,1.56,2.91,5,5,0,0,0,5.27-1.55,1,1,0,0,0,.2-.52C121.94,36.4,121.92,35.63,121.92,34.77Z"/><path d="M192.18,44.32H185V41.77c-.36.3-.56.45-.74.61a9.12,9.12,0,0,1-8.81,2c-2.55-.61-3.93-2.26-4.26-5a11.89,11.89,0,0,1,0-2.92A5.22,5.22,0,0,1,175,31.68a34.5,34.5,0,0,1,5.93-.89,38.23,38.23,0,0,1,3.86,0c.39-2-.52-3.45-2.43-3.41-2.35,0-4.7.43-7.05.67-.29,0-.57.09-1,.16l-1.09-5.07c2.43-.47,4.78-1.1,7.17-1.36a22.35,22.35,0,0,1,5.72.12c3.51.56,5.39,2.69,5.83,6.21a25.34,25.34,0,0,1,.19,3c0,4.07,0,8.13,0,12.19ZM185,34.8c-1.85,0-3.56-.09-5.26.05a2.37,2.37,0,0,0-1.64,1.1,2.45,2.45,0,0,0,1.58,3.34,5.06,5.06,0,0,0,5.1-1.59,1.18,1.18,0,0,0,.21-.61C185,36.35,185,35.61,185,34.8Z"/><path d="M212.07,29.1c-1.16,0-2.23,0-3.29,0a4.79,4.79,0,0,0-4.94,5.11V44.29h-7.35V22c2.33,0,4.63,0,6.92,0,.15,0,.4.45.41.69,0,1,0,1.94.11,3,1.86-3.48,4.67-4.8,8.62-3.89C212.4,24.15,212.24,26.56,212.07,29.1Z"/><path d="M104,53.64A38.4,38.4,0,0,1,88.83,50.4L90,46a48.88,48.88,0,0,0,14,1.79Z"/></g></svg>